<svg width="50" height="50" viewBox="0 0 50 50" fill="none" xmlns="http://www.w3.org/2000/svg">
<path d="M46.6667 12.5H32.4075C33.3308 11.5979 33.928 10.4145 34.105 9.13583C37.4567 8.8725 38.3025 6.87083 38.8675 4.82167C39.0718 4.06909 38.9132 3.26428 38.4387 2.64545C37.9642 2.02661 37.2281 1.66464 36.4483 1.66667H34.1667C34.1667 0.746192 33.4205 0 32.5 0H17.5C16.5795 0 15.8333 0.746192 15.8333 1.66667V8.33333C15.833 9.9028 16.4675 11.4057 17.5925 12.5H3.33333C1.95262 12.5 0.833333 13.6193 0.833333 15V17.3575C0.821613 19.3672 2.20736 21.1153 4.16667 21.5625V44.1667H2.5C1.11929 44.1667 0 45.286 0 46.6667V48.3333C0 49.2538 0.746192 50 1.66667 50H48.3333C49.2538 50 50 49.2538 50 48.3333V46.6667C50 45.286 48.8807 44.1667 47.5 44.1667H45.8333V21.5625C47.7926 21.1153 49.1784 19.3672 49.1667 17.3575V15C49.1667 13.6193 48.0474 12.5 46.6667 12.5ZM36.4483 3.33333C36.7106 3.33333 36.9576 3.45683 37.115 3.66667C37.2716 3.86871 37.324 4.1326 37.2567 4.37917C36.74 6.26667 36.2208 7.26417 34.1667 7.46083V3.33333H36.4483ZM17.5 8.33333V5.83333H20C20.4602 5.83333 20.8333 5.46024 20.8333 5C20.8333 4.53976 20.4602 4.16667 20 4.16667H17.5V1.66667H32.5V4.16667H23.3333C22.8731 4.16667 22.5 4.53976 22.5 5C22.5 5.46024 22.8731 5.83333 23.3333 5.83333H32.5V8.33333C32.4972 10.6334 30.6334 12.4972 28.3333 12.5H21.6667C19.3666 12.4972 17.5028 10.6334 17.5 8.33333ZM44.1667 44.1667H40.8333V26.6667C40.8333 25.7462 40.0871 25 39.1667 25H30.8333C29.9129 25 29.1667 25.7462 29.1667 26.6667V44.1667H13.3333C12.8731 44.1667 12.5 44.5398 12.5 45C12.5 45.4602 12.8731 45.8333 13.3333 45.8333H47.5C47.9602 45.8333 48.3333 46.2064 48.3333 46.6667V48.3333H1.66667V46.6667C1.66667 46.2064 2.03976 45.8333 2.5 45.8333H9.16667C9.6269 45.8333 10 45.4602 10 45C10 44.5398 9.6269 44.1667 9.16667 44.1667H5.83333V21.5833C6.83437 21.3895 7.72871 20.8331 8.345 20.0208C9.13094 21.0623 10.3619 21.6722 11.6667 21.6667C12.978 21.6672 14.2146 21.0561 15.0108 20.0142C15.7951 21.0589 17.027 21.6716 18.3333 21.6667C19.6447 21.6672 20.8813 21.0561 21.6775 20.0142C22.4618 21.0589 23.6936 21.6716 25 21.6667C26.3114 21.6672 27.5479 21.0561 28.3442 20.0142C29.1285 21.0589 30.3603 21.6716 31.6667 21.6667C32.978 21.6672 34.2146 21.0561 35.0108 20.0142C35.7951 21.0589 37.027 21.6716 38.3333 21.6667C39.6483 21.6781 40.8844 21.0405 41.6375 19.9625C42.2485 20.7988 43.151 21.3754 44.1667 21.5783V44.1667ZM39.1667 44.1667H30.8333V26.6667H39.1667V44.1667ZM47.5 17.3575C47.5288 18.6793 46.5602 19.8118 45.25 19.9883C44.3691 20.0748 43.5078 19.6903 42.9842 18.9767C42.6867 18.5691 42.2129 18.3277 41.7083 18.3267C41.1663 18.3212 40.6542 18.5747 40.33 19.0092C39.8575 19.6344 39.1191 20.002 38.3354 20.002C37.5517 20.002 36.8133 19.6344 36.3408 19.0092C36.0264 18.5856 35.53 18.3358 35.0025 18.3358C34.475 18.3358 33.9786 18.5856 33.6642 19.0092C33.1917 19.6348 32.4531 20.0025 31.6692 20.0025C30.8852 20.0025 30.1466 19.6348 29.6742 19.0092C29.348 18.6041 28.8559 18.3686 28.3358 18.3686C27.8158 18.3686 27.3237 18.6041 26.9975 19.0092C26.525 19.6348 25.7865 20.0025 25.0025 20.0025C24.2185 20.0025 23.48 19.6348 23.0075 19.0092C22.6813 18.6041 22.1892 18.3686 21.6692 18.3686C21.1491 18.3686 20.657 18.6041 20.3308 19.0092C19.8584 19.6348 19.1198 20.0025 18.3358 20.0025C17.5519 20.0025 16.8133 19.6348 16.3408 19.0092C16.0146 18.6041 15.5226 18.3686 15.0025 18.3686C14.4824 18.3686 13.9904 18.6041 13.6642 19.0092C13.1917 19.6344 12.4533 20.002 11.6696 20.002C10.8859 20.002 10.1475 19.6344 9.675 19.0092C9.35128 18.5818 8.84699 18.3295 8.31083 18.3267H8.29417C7.78976 18.3275 7.31593 18.5686 7.01833 18.9758C6.49525 19.6917 5.63216 20.0769 4.75 19.9883C3.43997 19.8114 2.47157 18.6791 2.5 17.3575V15C2.5 14.5398 2.8731 14.1667 3.33333 14.1667H46.6667C47.1269 14.1667 47.5 14.5398 47.5 15V17.3575Z" fill="white"/>
<path d="M24.1666 25H10.8333C9.91282 25 9.16663 25.7462 9.16663 26.6667V40C9.16663 40.9205 9.91282 41.6667 10.8333 41.6667H24.1666C25.0871 41.6667 25.8333 40.9205 25.8333 40V26.6667C25.8333 25.7462 25.0871 25 24.1666 25ZM24.1666 26.6667V36.6667H10.8333V26.6667H24.1666ZM10.8333 40V38.3333H24.1666V40H10.8333Z" fill="white"/>
<path d="M36.6666 38.3333C37.1268 38.3333 37.4999 37.9602 37.4999 37.5V33.3333C37.4999 32.8731 37.1268 32.5 36.6666 32.5C36.2063 32.5 35.8333 32.8731 35.8333 33.3333V37.5C35.8333 37.9602 36.2063 38.3333 36.6666 38.3333Z" fill="white"/>
<path d="M13.3333 30.8334C13.5543 30.8333 13.7662 30.7455 13.9225 30.5892L14.7558 29.7559C15.0716 29.4289 15.0671 28.9092 14.7457 28.5877C14.4242 28.2663 13.9045 28.2617 13.5775 28.5776L12.7441 29.4109C12.5059 29.6492 12.4346 30.0076 12.5636 30.3189C12.6925 30.6303 12.9963 30.8333 13.3333 30.8334Z" fill="white"/>
<path d="M13.3333 35C13.5543 35 13.7662 34.9122 13.9225 34.7559L18.9225 29.7559C19.2383 29.4289 19.2338 28.9091 18.9123 28.5877C18.5909 28.2663 18.0711 28.2617 17.7441 28.5776L12.7441 33.5775C12.5059 33.8159 12.4346 34.1742 12.5636 34.4856C12.6925 34.7969 12.9963 35 13.3333 35Z" fill="white"/>
</svg>
