<svg width="35" height="50" viewBox="0 0 35 50" fill="none" xmlns="http://www.w3.org/2000/svg">
<path d="M17.0897 38.1837C16.6081 38.1837 16.1573 37.947 15.8839 37.5505L0.258982 14.8944C-0.0500983 14.4462 -0.0851566 13.8637 0.167967 13.3817C0.420993 12.8998 0.920501 12.5979 1.46483 12.5979H32.7147C33.259 12.5979 33.7584 12.8998 34.0115 13.3817C34.2646 13.8637 34.2295 14.4462 33.9205 14.8944L18.2956 37.5505C18.0221 37.947 17.5713 38.1837 17.0897 38.1837ZM4.25437 15.5276L17.0896 34.1387L29.9249 15.5276H4.25437Z" fill="white"/>
<path d="M17.0897 50C16.2807 50 15.6249 49.3441 15.6249 48.5352V36.7188C15.6249 35.9098 16.2807 35.2539 17.0897 35.2539C17.8987 35.2539 18.5546 35.9098 18.5546 36.7188V48.5352C18.5546 49.3441 17.8987 50 17.0897 50Z" fill="white"/>
<path d="M28.0272 50H6.15234C5.34336 50 4.6875 49.3441 4.6875 48.5352C4.6875 47.7262 5.34336 47.0703 6.15234 47.0703H28.0272C28.8362 47.0703 29.492 47.7262 29.492 48.5352C29.492 49.3441 28.8362 50 28.0272 50Z" fill="white"/>
<path d="M17.0887 28.0278C16.8692 28.0278 16.6466 27.9783 16.4367 27.8738C15.7126 27.5132 15.4179 26.6338 15.7786 25.9096L28.2785 0.812086C28.6391 0.0879688 29.5185 -0.206756 30.2428 0.153984C30.9669 0.514626 31.2616 1.39411 30.9009 2.11823L18.401 27.2157C18.1448 27.7301 17.6269 28.0278 17.0887 28.0278Z" fill="white"/>
<path d="M26.3159 24.804C26.0367 24.804 25.7545 24.7245 25.5047 24.558L23.3085 23.0941C22.3781 22.4736 21.1761 22.4736 20.2462 23.0939C18.3285 24.3723 15.8508 24.3723 13.9334 23.094C13.0033 22.4739 11.8012 22.4739 10.8711 23.094L8.67466 24.558C8.00142 25.0067 7.09205 24.8247 6.64333 24.1515C6.1946 23.4784 6.37663 22.5688 7.04977 22.1202L9.24605 20.6563C11.1632 19.3781 13.6411 19.3781 15.5585 20.6564C16.4887 21.2765 17.6906 21.2765 18.6209 20.6564C20.5383 19.3778 23.0163 19.3779 24.9336 20.6565L27.1296 22.1202C27.8029 22.5688 27.9848 23.4783 27.5361 24.1515C27.2539 24.575 26.7893 24.804 26.3159 24.804Z" fill="white"/>
</svg>
