<svg width="72" height="53" viewBox="0 0 72 53" fill="none" xmlns="http://www.w3.org/2000/svg">
<path d="M17.3869 52.7517C14.9071 52.7166 13.3382 52.6552 13.2835 52.591C13.2347 52.5338 10.2929 43.3424 6.74612 32.1657L0.297432 11.8444L0.23798 6.59513L0.178528 1.34588L2.96776 10.0773C4.50184 14.8796 7.3577 23.8437 9.31411 29.9976L12.8712 41.1866L14.7896 41.2469C15.8447 41.2801 18.5296 41.3316 20.7561 41.3614L24.8042 41.4156L28.7542 32.8147L32.7042 24.2139L34.1436 24.1476C34.9353 24.1111 36.3755 24.054 37.344 24.0207L39.105 23.96L43.0582 32.5585L47.0113 41.157L50.3852 41.1287C52.2408 41.1131 54.9297 41.0725 56.3604 41.0385L58.9618 40.9767L65.2974 21.0388C68.782 10.0729 71.6464 1.1147 71.6627 1.13168C71.679 1.14866 71.7297 3.53403 71.7754 6.43251L71.8585 11.7025L65.3924 32.0428L58.9264 52.3831L57.9905 52.4488C57.4758 52.4849 54.8751 52.54 52.2111 52.5711L47.3675 52.6278L43.482 44.1616C41.345 39.5051 39.5474 35.6307 39.4873 35.5517C39.3949 35.4303 38.8606 35.4266 36.0356 35.528L32.6933 35.6479L28.7452 44.248L24.7972 52.8482L23.0995 52.8284C22.1657 52.8174 19.5951 52.783 17.3869 52.7517V52.7517Z" fill="#E63946"/>
<path d="M17.1373 52.7519C14.8318 52.717 13.3351 52.6546 13.2765 52.591C13.224 52.5338 12.845 51.4112 12.4344 50.0963C12.0238 48.7813 9.1243 39.6367 5.99104 29.7749L0.294208 11.8443L0.237468 6.59509L0.180725 1.34585L3.2844 11.0647C4.99143 16.4101 7.84848 25.3742 9.6334 30.9848L12.8787 41.186L15.2927 41.2469C16.6204 41.2803 19.302 41.3333 21.252 41.3646L24.7973 41.4215L28.7487 32.8177L32.7001 24.2138L34.0417 24.1495C34.7796 24.1141 36.2277 24.0674 37.2596 24.0456L39.136 24.006L43.0764 32.5814L47.0167 41.1569L50.0384 41.129C51.7003 41.1137 54.3872 41.0729 56.0092 41.0384L58.9584 40.9758L62.2311 30.6718C69.3996 8.10207 71.6697 1.0453 71.6816 1.29387C71.6884 1.4368 71.7326 3.83535 71.7796 6.624L71.8652 11.6943L65.4001 32.0387L58.935 52.3831L57.9949 52.4486C57.4778 52.4847 54.8751 52.5425 52.2111 52.5772L47.3675 52.6403L43.4367 44.0752C40.8986 38.5449 39.4478 35.496 39.3421 35.4702C39.252 35.4483 37.7196 35.4792 35.9367 35.5391L32.6952 35.6478L28.7474 44.2493L24.7996 52.8508L22.851 52.8299C21.7793 52.8184 19.2081 52.7833 17.1373 52.7519Z" fill="#E63946"/>
</svg>
