<svg width="50" height="50" viewBox="0 0 50 50" fill="none" xmlns="http://www.w3.org/2000/svg">
<path d="M50 30H46.9234C46.5755 23.9497 44.3398 18.316 40.5369 13.9891C37.3447 10.3572 33.3431 7.9822 28.9951 7.07813C29.2507 6.44488 29.3945 5.74132 29.3945 5C29.3945 2.24306 27.4231 0 25 0C22.5769 0 20.6055 2.24306 20.6055 5C20.6055 5.74132 20.7493 6.44488 21.0045 7.07813C16.6569 7.9822 12.6553 10.3572 9.46274 13.9891C5.66025 18.316 3.42407 23.9497 3.07655 30H0V33.3333H3.58696L6.51665 40H20.0378L18.0847 46.6667H14.7461V50H35.2539V46.6667H31.9153L29.9622 40H43.4834L46.413 33.3333H50V30ZM23.5352 5C23.5352 4.08116 24.1924 3.33333 25 3.33333C25.8076 3.33333 26.4648 4.08116 26.4648 5C26.4648 5.91884 25.8076 6.66667 25 6.66667C24.1924 6.66667 23.5352 5.91884 23.5352 5ZM25 10C35.0075 10 43.2365 18.8286 43.9873 30H6.01273C6.76346 18.8286 14.9925 10 25 10ZM28.8269 46.6667H21.1731L23.1262 40H26.8738L28.8269 46.6667ZM41.6729 36.6667H8.3271L6.86226 33.3333H43.1377L41.6729 36.6667Z" fill="white"/>
</svg>
