<svg width="28" height="22" viewBox="0 0 28 22" fill="none" xmlns="http://www.w3.org/2000/svg">
<path d="M25.5391 0H2.46094C1.10567 0 0 1.10447 0 2.46094V18.8672C0 20.2191 1.10075 21.3281 2.46094 21.3281H25.5391C26.8909 21.3281 28 20.2274 28 18.8672V2.46094C28 1.10906 26.8993 0 25.5391 0ZM25.1992 1.64062L14.0522 12.7877L2.8087 1.64062H25.1992ZM1.64062 18.5275V2.79284L9.54182 10.6263L1.64062 18.5275ZM2.80071 19.6875L10.7069 11.7813L13.4772 14.5278C13.7979 14.8458 14.3154 14.8448 14.6348 14.5253L17.3359 11.8241L25.1993 19.6875H2.80071ZM26.3594 18.5274L18.496 10.6641L26.3594 2.80066V18.5274Z" fill="white"/>
</svg>
