<svg width="50" height="50" viewBox="0 0 50 50" fill="none" xmlns="http://www.w3.org/2000/svg">
<g clip-path="url(#clip0)">
<path d="M47.0561 28.3592C46.7474 28.0973 46.2854 28.1355 46.0237 28.4439C45.7621 28.7524 45.8 29.2147 46.1086 29.4762C47.6938 30.8208 48.533 32.3256 48.5352 33.828C48.5366 34.8366 48.175 35.6892 47.4296 36.4345C46.1832 37.681 43.864 38.6095 40.5363 39.1943C37.5491 39.7192 33.808 39.974 29.0957 39.9646C21.8204 39.9548 16.6882 39.3252 13.4771 38.0451C14.714 37.165 16.0373 36.1087 17.4564 34.869C17.886 35.383 18.502 35.7226 19.1924 35.7924C20.6264 35.9372 21.9168 34.8756 22.0552 33.4332C22.1477 32.4686 22.1497 31.4973 22.0625 30.5403C23.3481 29.2577 24.5078 28.047 25.5502 26.8985C26.1373 27.9034 26.5416 28.9625 26.7535 30.0581C26.9345 30.9918 26.9791 31.9584 26.886 32.9312C26.7485 34.3726 27.8014 35.6631 29.2387 35.8083C30.6691 35.9528 31.9493 34.8993 32.0893 33.447C32.2314 31.9725 32.1627 30.4969 31.885 29.0608C31.592 27.5483 31.0649 26.0881 30.316 24.7037C31.7225 24.7476 33.0981 24.862 34.4261 25.044C35.6488 26.5934 36.4029 28.2806 36.6661 30.0634C36.805 31.0043 36.8062 31.9717 36.6693 32.9387C36.4667 34.3726 37.4607 35.7092 38.8859 35.9183C40.3 36.1259 41.6409 35.1342 41.845 33.6903C42.0527 32.2206 42.0501 30.7434 41.837 29.3C41.7088 28.4316 41.5025 27.5724 41.2215 26.7312C41.95 27.0109 42.6444 27.3171 43.2981 27.6497C43.6531 27.8304 44.0973 27.6941 44.283 27.3291C44.4665 26.9686 44.3229 26.5276 43.9624 26.3441C39.9373 24.2957 34.3729 23.1667 28.6537 23.22C29.0479 22.7093 29.4149 22.2115 29.7553 21.7261C31.9005 18.6659 32.9434 16.1581 32.9434 14.0595C32.9434 12.6165 32.4414 11.3842 31.4516 10.3971C29.3805 8.33152 25.8741 8.00604 21.5787 9.48035C17.4587 10.8944 13.0444 13.8126 9.14922 17.6971C3.50586 23.3253 0 29.9338 0 34.9437C0 37.0214 0.63252 38.7504 1.8293 39.9438C2.82197 40.9338 4.04268 41.4286 5.48193 41.4285C7.00557 41.4285 8.77412 40.874 10.7762 39.7653C11.1865 39.5381 11.6079 39.2869 12.0402 39.013C15.3804 40.6271 20.9674 41.4185 29.0937 41.4295C33.7386 41.4357 37.7856 41.165 40.7898 40.6371C44.4708 39.9902 46.9814 38.9544 48.4653 37.4704C49.4856 36.4501 50.002 35.2239 49.9999 33.826C49.9972 31.8805 48.9792 29.9902 47.0561 28.3592V28.3592ZM39.4189 26.1146C39.89 27.2134 40.217 28.355 40.3881 29.5138C40.5807 30.8183 40.5829 32.1546 40.3947 33.4852C40.3047 34.1221 39.7256 34.5609 39.098 34.4688C38.4685 34.3765 38.0297 33.782 38.1198 33.1438C38.2763 32.0377 38.2747 30.9293 38.1152 29.8494C37.8839 28.2821 37.3252 26.7857 36.452 25.3812C37.4806 25.5838 38.4727 25.8286 39.4189 26.1146V26.1146ZM20.5971 33.2933C20.5399 33.8911 20.0513 34.3415 19.4593 34.3415C19.0968 34.3415 18.7681 34.1753 18.5509 33.8938C19.2326 33.2749 19.9356 32.6157 20.6608 31.9158C20.6617 32.3748 20.6411 32.8348 20.5971 33.2933ZM30.4469 29.339C30.6979 30.637 30.76 31.9718 30.6313 33.307C30.5697 33.9457 30.0107 34.4139 29.3803 34.3503C28.7478 34.2864 28.2831 33.7122 28.3443 33.0706C28.4507 31.9581 28.3993 30.851 28.1918 29.7797C27.9193 28.3712 27.3734 27.0197 26.568 25.7541C26.8749 25.4014 27.1707 25.0546 27.4546 24.7137C27.8383 24.6992 28.2255 24.6886 28.6147 24.6847C29.5155 26.1474 30.1316 27.7114 30.4469 29.339ZM18.5203 12.4275C19.6295 12.8713 20.667 13.447 21.6064 14.1447C22.6649 14.931 23.6113 15.8742 24.4193 16.9482C24.7805 17.4283 24.7231 18.0903 24.286 18.4882C23.7839 18.9451 22.9811 18.8627 22.5693 18.3153C21.8978 17.4225 21.1129 16.6399 20.2366 15.9891C18.9654 15.045 17.5131 14.382 15.9036 14.0063C16.774 13.4226 17.6487 12.8947 18.5203 12.4275ZM4.14941 26.5454C5.29268 26.9404 6.3667 27.4739 7.34834 28.1368C8.44102 28.8749 9.42891 29.7748 10.2845 30.8117C10.6671 31.2755 10.64 31.9401 10.2212 32.3577C9.74102 32.8365 8.93584 32.79 8.5002 32.2621C7.78906 31.4003 6.96982 30.6534 6.06523 30.0425C5.15996 29.431 4.15996 28.9554 3.08604 28.6184C3.39941 27.9348 3.75449 27.2422 4.14941 26.5454V26.5454ZM10.0666 38.4839C6.76689 40.3112 4.41084 40.4496 2.86367 38.9066C1.93545 37.9809 1.46484 36.6476 1.46484 34.9437C1.46484 33.4472 1.83486 31.7568 2.51592 29.9754C3.50498 30.2719 4.42148 30.7001 5.24531 31.2564C6.0335 31.7887 6.74844 32.4408 7.37021 33.1944C8.35234 34.3847 10.1685 34.4788 11.2556 33.3948C12.2124 32.4407 12.2807 30.9294 11.4143 29.8794C10.4693 28.7343 9.37725 27.7396 8.16816 26.923C7.16406 26.2449 6.07314 25.6909 4.91729 25.2658C5.51758 24.3152 6.18633 23.3635 6.91797 22.4236C8.41416 22.508 10.462 22.8953 12.3506 24.1709C13.1389 24.7031 13.8537 25.3552 14.4754 26.1087C15.3986 27.2276 17.0562 27.3922 18.1691 26.4823C19.2902 25.5659 19.4401 23.9093 18.5195 22.7937C17.9377 22.0886 17.2935 21.4341 16.6048 20.8484C16.2968 20.5865 15.8344 20.6237 15.5724 20.9319C15.3103 21.24 15.3477 21.7023 15.6559 21.9643C16.2791 22.4943 16.8624 23.087 17.3896 23.726C17.7988 24.222 17.7327 24.9468 17.2418 25.3481C16.7495 25.7507 16.0153 25.6735 15.6052 25.1762C14.894 24.3144 14.0749 23.5677 13.1703 22.9568C11.6867 21.9548 9.93184 21.3099 8.03262 21.0586C8.61357 20.379 9.22588 19.7097 9.86719 19.0556C10.9531 19.314 11.9906 19.6888 12.9557 20.1738C13.3112 20.3525 13.7551 20.2141 13.939 19.8483C14.1206 19.4869 13.9749 19.0467 13.6135 18.865C12.8104 18.4614 11.9624 18.1284 11.0821 17.866C12.1072 16.9034 13.162 16.0111 14.2317 15.1999C16.1913 15.4311 17.9168 16.0909 19.3631 17.165C20.1267 17.7322 20.8115 18.4155 21.3987 19.196C22.3266 20.4293 24.1394 20.6022 25.2718 19.5717C26.2715 18.6619 26.4082 17.1555 25.5898 16.0677C24.6975 14.8814 23.6511 13.8388 22.4798 12.9688C21.7752 12.4456 21.0219 11.984 20.2284 11.5879C20.8424 11.3141 21.4521 11.0727 22.0545 10.8659C23.6787 10.3084 25.1574 10.0312 26.4467 10.0312C28.125 10.0312 29.4818 10.5012 30.4175 11.4343C31.1316 12.1465 31.4788 13.0052 31.4788 14.0595C31.4788 15.8221 30.4955 18.1186 28.5561 20.8852C27.5867 22.2679 26.3692 23.883 25.1168 25.1864C20.7527 29.7279 15.4667 35.4932 10.0666 38.4839V38.4839Z" fill="white"/>
</g>
<defs>
<clipPath id="clip0">
<rect width="50" height="50" fill="white"/>
</clipPath>
</defs>
</svg>
