<svg width="50" height="50" viewBox="0 0 50 50" fill="none" xmlns="http://www.w3.org/2000/svg">
<path d="M35.4066 16.8516L34.8716 15.0908C34.192 13.0905 32.0196 12.02 30.0194 12.6996C28.8942 13.0819 28.0106 13.9655 27.6283 15.0908L27.0933 16.8516C26.6431 18.3366 26.5486 19.9067 26.8174 21.4349C27.0626 22.7216 27.8795 23.827 29.0374 24.4391L28.4383 37.8333C28.3581 38.5809 28.6006 39.3272 29.1049 39.8849C30.1896 41.0714 32.0309 41.1539 33.2173 40.0692C33.2815 40.0106 33.343 39.9491 33.4016 39.8849C33.8947 39.3431 34.1368 38.6186 34.0683 37.8891L33.4658 24.4374C34.6221 23.825 35.4377 22.7203 35.6825 21.4349C35.9513 19.9067 35.8568 18.3366 35.4066 16.8516ZM34.0408 21.1449C33.8604 22.0693 33.2016 22.8277 32.3116 23.1358C31.9738 23.2627 31.7562 23.5927 31.7724 23.9533L32.4058 38.0208C32.4349 38.2967 32.3439 38.5718 32.1558 38.7758C31.654 39.2725 30.8459 39.2725 30.3441 38.7758C30.1466 38.5553 30.0569 38.2587 30.0991 37.9658L30.7274 23.9533C30.7437 23.5927 30.5261 23.2627 30.1883 23.1358C29.2983 22.8277 28.6395 22.0693 28.4591 21.1449C28.2362 19.8762 28.3147 18.5727 28.6883 17.3399L29.2233 15.5783C29.6372 14.459 30.8802 13.8872 31.9995 14.3012C32.5913 14.52 33.0578 14.9866 33.2766 15.5783L33.8116 17.3399C34.1847 18.5728 34.2633 19.8762 34.0408 21.1449Z" fill="white"/>
<path d="M22.5 12.5C22.0398 12.5 21.6666 12.8731 21.6666 13.3333V20.4883L19.4108 22.7442C19.2439 22.9104 19.1552 23.1397 19.1666 23.375L19.8958 37.9583C19.9132 38.2728 19.799 38.5804 19.5808 38.8075C19.1246 39.2677 18.3817 39.271 17.9214 38.8148C17.9189 38.8124 17.9165 38.8099 17.9141 38.8075C17.6958 38.5804 17.5817 38.2728 17.5991 37.9583L18.3333 23.375C18.345 23.1398 18.2565 22.9106 18.09 22.7442L15.8333 20.4883V13.3333C15.8333 12.8731 15.4602 12.5 15 12.5C14.5398 12.5 14.1666 12.8731 14.1666 13.3333V20.8333C14.1666 21.0544 14.2545 21.2663 14.4108 21.4225L16.6491 23.6617L15.9383 37.8775C15.8627 39.4303 17.0602 40.7505 18.613 40.8261C20.1658 40.9018 21.486 39.7043 21.5616 38.1515C21.5661 38.0602 21.5661 37.9689 21.5616 37.8776L20.8508 23.6618L23.0891 21.4226C23.2454 21.2664 23.3333 21.0545 23.3333 20.8334V13.3334C23.3333 12.8731 22.9602 12.5 22.5 12.5Z" fill="white"/>
<path d="M17.5 12.5C17.0398 12.5 16.6666 12.8731 16.6666 13.3333V20C16.6666 20.4602 17.0398 20.8333 17.5 20.8333C17.9602 20.8333 18.3333 20.4602 18.3333 20V13.3333C18.3333 12.8731 17.9602 12.5 17.5 12.5Z" fill="white"/>
<path d="M20 12.5C19.5398 12.5 19.1666 12.8731 19.1666 13.3333V20C19.1666 20.4602 19.5398 20.8333 20 20.8333C20.4602 20.8333 20.8333 20.4602 20.8333 20V13.3333C20.8333 12.8731 20.4602 12.5 20 12.5Z" fill="white"/>
<path d="M25 0C11.1929 0 0 11.1929 0 25C0 38.8071 11.1929 50 25 50C38.8071 50 50 38.8071 50 25C49.9844 11.1994 38.8006 0.015625 25 0ZM25 48.3333C12.1133 48.3333 1.66667 37.8867 1.66667 25C1.66667 12.1133 12.1133 1.66667 25 1.66667C37.8867 1.66667 48.3333 12.1133 48.3333 25C48.3186 37.8805 37.8805 48.3186 25 48.3333Z" fill="white"/>
<path d="M27.7052 40.6429C27.6605 40.1849 27.2529 39.8498 26.7947 39.8945C26.784 39.8955 26.7733 39.8968 26.7626 39.8983L26.7659 39.8974C25.5927 40.0337 24.4075 40.0337 23.2342 39.8974C22.7769 39.8438 22.3629 40.171 22.3092 40.6282C22.2556 41.0855 22.5828 41.4996 23.0401 41.5532C24.3412 41.7052 25.6556 41.7052 26.9567 41.5532C27.4147 41.5087 27.7498 41.1011 27.7052 40.6429Z" fill="white"/>
<path d="M37.7499 14.2617C37.4542 13.9091 36.9286 13.8629 36.576 14.1588C36.5748 14.1597 36.5737 14.1608 36.5724 14.1617C36.2207 14.4584 36.1759 14.984 36.4724 15.3359C41.4969 21.3004 41.1125 30.1201 35.5883 35.625C35.2622 35.9499 35.2613 36.4777 35.5862 36.8038C35.9111 37.1298 36.4389 37.1308 36.7649 36.8059C42.9042 30.6899 43.3323 20.8897 37.7499 14.2617Z" fill="white"/>
<path d="M19.4159 11.0149C19.4154 11.0149 19.4149 11.0148 19.4143 11.0148C19.4135 11.0148 19.4127 11.0149 19.4117 11.0149H19.4159Z" fill="white"/>
<path d="M28.9308 8.7991C25.674 8.01858 22.2584 8.22837 19.1216 9.4016C18.6908 9.56357 18.473 10.0442 18.635 10.4749C18.7571 10.7996 19.0675 11.0145 19.4142 11.0148C19.5139 11.0143 19.6127 10.9961 19.7058 10.9608C22.5306 9.90441 25.6064 9.71576 28.5392 10.4191C28.9865 10.5272 29.4369 10.2523 29.545 9.80493C29.6531 9.35753 29.3782 8.90722 28.9308 8.7991Z" fill="white"/>
<path d="M14.3742 35.5833C11.5649 32.7789 9.99041 28.9696 9.99999 25C9.99176 21.8285 10.9963 18.7373 12.8675 16.1767C13.1441 15.8088 13.07 15.2864 12.7021 15.0098C12.3342 14.7332 11.8118 14.8073 11.5352 15.1752C11.5303 15.1818 11.5255 15.1883 11.5208 15.195C6.70281 21.8188 7.41177 30.9616 13.1933 36.7633C13.5192 37.0894 14.0477 37.0896 14.3737 36.7638C14.6998 36.4379 14.7 35.9094 14.3742 35.5833Z" fill="white"/>
</svg>
