<svg width="46" height="32" viewBox="0 0 46 32" fill="none" xmlns="http://www.w3.org/2000/svg">
<path d="M10.9263 31.8501C9.36793 31.8289 8.38202 31.7918 8.34762 31.753C8.31698 31.7185 6.46829 26.169 4.23941 19.4208L0.186905 7.15132L0.149544 3.98196L0.112183 0.812604L1.865 6.0844C2.82905 8.98389 4.62374 14.3962 5.85319 18.1118L8.08857 24.8674L9.2941 24.9038C9.95714 24.9238 11.6444 24.9549 13.0436 24.9729L15.5875 25.0056L18.0698 19.8127L20.5521 14.6197L21.4566 14.5797C21.9541 14.5577 22.8592 14.5232 23.4678 14.503L24.5745 14.4664L27.0587 19.658L29.543 24.8495L31.6632 24.8324C32.8293 24.823 34.5191 24.7985 35.4182 24.778L37.053 24.7407L41.0344 12.7026C43.2242 6.08174 45.0242 0.673021 45.0345 0.683273C45.0447 0.693524 45.0766 2.13375 45.1053 3.88378L45.1575 7.06565L41.0941 19.3466L37.0307 31.6275L36.4426 31.6672C36.1191 31.689 34.4847 31.7222 32.8106 31.7411L29.7668 31.7753L27.3251 26.6636C25.9822 23.8522 24.8525 21.5129 24.8147 21.4652C24.7567 21.3919 24.4209 21.3896 22.6456 21.4508L20.5452 21.5232L18.0642 26.7158L15.5831 31.9083L14.5162 31.8964C13.9294 31.8898 12.314 31.8689 10.9263 31.8501V31.8501Z" fill="white"/>
<path d="M10.7694 31.8502C9.32062 31.8291 8.38002 31.7915 8.34323 31.753C8.31019 31.7185 8.07205 31.0407 7.81403 30.2468C7.556 29.4529 5.73388 23.9316 3.76486 17.9773L0.18484 7.1513L0.149184 3.98195L0.113525 0.812592L2.06395 6.68061C3.13668 9.90801 4.93212 15.3203 6.0538 18.7078L8.09324 24.8671L9.61022 24.9038C10.4446 24.924 12.1298 24.9559 13.3552 24.9748L15.5831 25.0092L18.0663 19.8144L20.5495 14.6197L21.3926 14.5809C21.8563 14.5595 22.7662 14.5312 23.4148 14.5181L24.5939 14.4942L27.0701 19.6718L29.5463 24.8495L31.4452 24.8326C32.4896 24.8234 34.1781 24.7987 35.1974 24.7779L37.0508 24.7401L39.1074 18.5188C43.6123 4.89182 45.0388 0.631132 45.0463 0.781211C45.0506 0.867505 45.0783 2.31569 45.1079 3.9994L45.1617 7.06069L41.0989 19.3441L37.0361 31.6275L36.4453 31.6671C36.1203 31.6889 34.4847 31.7238 32.8106 31.7447L29.7668 31.7828L27.2966 26.6115C25.7016 23.2724 24.7899 21.4316 24.7234 21.416C24.6668 21.4027 23.7038 21.4214 22.5834 21.4576L20.5463 21.5232L18.0655 26.7166L15.5846 31.9099L14.36 31.8973C13.6865 31.8904 12.0708 31.8692 10.7694 31.8502Z" fill="white"/>
</svg>
